<mxfile host="65bd71144e">
    <diagram name="Page-1" id="M8W2v-ViSmOjyCKTm3ut">
        <mxGraphModel dx="1015" dy="816" grid="1" gridSize="10" guides="1" tooltips="1" connect="1" arrows="1" fold="1" page="1" pageScale="1" pageWidth="827" pageHeight="1169" math="0" shadow="0">
            <root>
                <mxCell id="0"/>
                <mxCell id="1" parent="0"/>
                <mxCell id="4tHsOQegTW2wSFInI1D_-3" value="" style="edgeStyle=orthogonalEdgeStyle;rounded=0;orthogonalLoop=1;jettySize=auto;html=1;entryX=0.25;entryY=1;entryDx=0;entryDy=0;exitX=1;exitY=0.5;exitDx=0;exitDy=0;fillColor=#d5e8d4;strokeColor=#82b366;" parent="1" source="4tHsOQegTW2wSFInI1D_-1" target="R202N3jsoOXlH-2kskz--3" edge="1">
                    <mxGeometry relative="1" as="geometry">
                        <Array as="points">
                            <mxPoint x="324" y="280"/>
                        </Array>
                    </mxGeometry>
                </mxCell>
                <mxCell id="4tHsOQegTW2wSFInI1D_-1" value="ms-auth" style="rounded=0;whiteSpace=wrap;html=1;fillColor=#d5e8d4;strokeColor=#82b366;" parent="1" vertex="1">
                    <mxGeometry x="174" y="250" width="120" height="60" as="geometry"/>
                </mxCell>
                <mxCell id="4tHsOQegTW2wSFInI1D_-5" value="" style="edgeStyle=orthogonalEdgeStyle;rounded=0;orthogonalLoop=1;jettySize=auto;html=1;entryX=1;entryY=0.75;entryDx=0;entryDy=0;fillColor=#f8cecc;strokeColor=#b85450;exitX=0.5;exitY=0;exitDx=0;exitDy=0;" parent="1" source="4tHsOQegTW2wSFInI1D_-2" target="R202N3jsoOXlH-2kskz--3" edge="1">
                    <mxGeometry relative="1" as="geometry">
                        <Array as="points">
                            <mxPoint x="474" y="175"/>
                        </Array>
                    </mxGeometry>
                </mxCell>
                <mxCell id="4tHsOQegTW2wSFInI1D_-2" value="ui-app" style="rounded=0;whiteSpace=wrap;html=1;fillColor=#d5e8d4;strokeColor=#82b366;" parent="1" vertex="1">
                    <mxGeometry x="414" y="250" width="120" height="60" as="geometry"/>
                </mxCell>
                <mxCell id="4tHsOQegTW2wSFInI1D_-10" style="edgeStyle=orthogonalEdgeStyle;rounded=0;orthogonalLoop=1;jettySize=auto;html=1;entryX=0.5;entryY=0;entryDx=0;entryDy=0;fillColor=#ffe6cc;strokeColor=#d79b00;" parent="1" source="4tHsOQegTW2wSFInI1D_-4" target="4tHsOQegTW2wSFInI1D_-6" edge="1">
                    <mxGeometry relative="1" as="geometry"/>
                </mxCell>
                <mxCell id="R202N3jsoOXlH-2kskz--7" style="edgeStyle=orthogonalEdgeStyle;rounded=0;orthogonalLoop=1;jettySize=auto;html=1;entryX=0.5;entryY=0;entryDx=0;entryDy=0;fillColor=#dae8fc;strokeColor=#6c8ebf;" parent="1" source="4tHsOQegTW2wSFInI1D_-4" target="R202N3jsoOXlH-2kskz--6" edge="1">
                    <mxGeometry relative="1" as="geometry">
                        <Array as="points">
                            <mxPoint x="800" y="280"/>
                        </Array>
                    </mxGeometry>
                </mxCell>
                <mxCell id="4tHsOQegTW2wSFInI1D_-4" value="ms-ui" style="rounded=0;whiteSpace=wrap;html=1;fillColor=#d5e8d4;strokeColor=#82b366;" parent="1" vertex="1">
                    <mxGeometry x="580" y="250" width="120" height="60" as="geometry"/>
                </mxCell>
                <mxCell id="4tHsOQegTW2wSFInI1D_-6" value="db-app" style="rounded=0;whiteSpace=wrap;html=1;" parent="1" vertex="1">
                    <mxGeometry x="580" y="610" width="120" height="60" as="geometry"/>
                </mxCell>
                <mxCell id="4tHsOQegTW2wSFInI1D_-11" style="edgeStyle=orthogonalEdgeStyle;rounded=0;orthogonalLoop=1;jettySize=auto;html=1;entryX=0.75;entryY=0;entryDx=0;entryDy=0;fillColor=#ffe6cc;strokeColor=#d79b00;" parent="1" source="4tHsOQegTW2wSFInI1D_-8" target="4tHsOQegTW2wSFInI1D_-6" edge="1">
                    <mxGeometry relative="1" as="geometry"/>
                </mxCell>
                <mxCell id="4tHsOQegTW2wSFInI1D_-13" value="" style="edgeStyle=orthogonalEdgeStyle;rounded=0;orthogonalLoop=1;jettySize=auto;html=1;fillColor=#ffe6cc;strokeColor=#d79b00;" parent="1" source="4tHsOQegTW2wSFInI1D_-8" target="4tHsOQegTW2wSFInI1D_-12" edge="1">
                    <mxGeometry relative="1" as="geometry"/>
                </mxCell>
                <mxCell id="4tHsOQegTW2wSFInI1D_-8" value="ms-data" style="rounded=0;whiteSpace=wrap;html=1;fillColor=#d5e8d4;strokeColor=#82b366;" parent="1" vertex="1">
                    <mxGeometry x="740" y="480" width="120" height="60" as="geometry"/>
                </mxCell>
                <mxCell id="4tHsOQegTW2wSFInI1D_-12" value="db-data" style="rounded=0;whiteSpace=wrap;html=1;" parent="1" vertex="1">
                    <mxGeometry x="740" y="610" width="120" height="60" as="geometry"/>
                </mxCell>
                <mxCell id="R202N3jsoOXlH-2kskz--2" style="edgeStyle=orthogonalEdgeStyle;rounded=0;orthogonalLoop=1;jettySize=auto;html=1;entryX=0;entryY=0.5;entryDx=0;entryDy=0;" parent="1" source="R202N3jsoOXlH-2kskz--1" target="4tHsOQegTW2wSFInI1D_-1" edge="1">
                    <mxGeometry relative="1" as="geometry"/>
                </mxCell>
                <mxCell id="R202N3jsoOXlH-2kskz--1" value="proxy-gateway" style="rounded=0;whiteSpace=wrap;html=1;fillColor=#d5e8d4;strokeColor=#82b366;" parent="1" vertex="1">
                    <mxGeometry x="20" y="250" width="120" height="60" as="geometry"/>
                </mxCell>
                <mxCell id="R202N3jsoOXlH-2kskz--5" style="edgeStyle=orthogonalEdgeStyle;rounded=0;orthogonalLoop=1;jettySize=auto;html=1;entryX=0.5;entryY=0;entryDx=0;entryDy=0;fillColor=#f8cecc;strokeColor=#b85450;exitX=1;exitY=0.5;exitDx=0;exitDy=0;" parent="1" source="R202N3jsoOXlH-2kskz--3" target="4tHsOQegTW2wSFInI1D_-4" edge="1">
                    <mxGeometry relative="1" as="geometry">
                        <Array as="points">
                            <mxPoint x="640" y="160"/>
                        </Array>
                    </mxGeometry>
                </mxCell>
                <mxCell id="R202N3jsoOXlH-2kskz--3" value="proxy-auth-ui" style="rounded=0;whiteSpace=wrap;html=1;fillColor=#d5e8d4;strokeColor=#82b366;" parent="1" vertex="1">
                    <mxGeometry x="294" y="130" width="120" height="60" as="geometry"/>
                </mxCell>
                <mxCell id="R202N3jsoOXlH-2kskz--8" style="edgeStyle=orthogonalEdgeStyle;rounded=0;orthogonalLoop=1;jettySize=auto;html=1;entryX=0.5;entryY=0;entryDx=0;entryDy=0;fillColor=#dae8fc;strokeColor=#6c8ebf;exitX=0.5;exitY=1;exitDx=0;exitDy=0;" parent="1" source="R202N3jsoOXlH-2kskz--6" target="4tHsOQegTW2wSFInI1D_-8" edge="1">
                    <mxGeometry relative="1" as="geometry">
                        <mxPoint x="775" y="400" as="sourcePoint"/>
                        <mxPoint x="770" y="520" as="targetPoint"/>
                        <Array as="points">
                            <mxPoint x="800" y="440"/>
                            <mxPoint x="800" y="440"/>
                        </Array>
                    </mxGeometry>
                </mxCell>
                <mxCell id="R202N3jsoOXlH-2kskz--6" value="proxy-ui-data" style="rounded=0;whiteSpace=wrap;html=1;fillColor=#d5e8d4;strokeColor=#82b366;" parent="1" vertex="1">
                    <mxGeometry x="740" y="360" width="120" height="60" as="geometry"/>
                </mxCell>
                <mxCell id="3" value="" style="edgeStyle=orthogonalEdgeStyle;rounded=0;orthogonalLoop=1;jettySize=auto;html=1;entryX=0;entryY=0.5;entryDx=0;entryDy=0;exitX=0.75;exitY=1;exitDx=0;exitDy=0;fillColor=#d5e8d4;strokeColor=#82b366;" edge="1" parent="1" source="R202N3jsoOXlH-2kskz--3" target="4tHsOQegTW2wSFInI1D_-2">
                    <mxGeometry relative="1" as="geometry">
                        <Array as="points">
                            <mxPoint x="384" y="280"/>
                        </Array>
                        <mxPoint x="304" y="290" as="sourcePoint"/>
                        <mxPoint x="334" y="200" as="targetPoint"/>
                    </mxGeometry>
                </mxCell>
            </root>
        </mxGraphModel>
    </diagram>
</mxfile>